<svg id="af035084-b070-49a6-94da-578223415792" data-name="Шар 1" xmlns="http://www.w3.org/2000/svg" viewBox="0 0 1909.53 285.33"><path d="M157.56,87.18A83.75,83.75,0,0,0,129.63,70a96.21,96.21,0,0,0-34.36-6.06,90.79,90.79,0,0,0-34.19,6.43,88.48,88.48,0,0,0-28,17.73A82.42,82.42,0,0,0,7.24,148.75a81.06,81.06,0,0,0,6.92,33.44A82.72,82.72,0,0,0,33.07,209a90.49,90.49,0,0,0,62.2,24.31,90.3,90.3,0,0,0,34.36-6.51A88.6,88.6,0,0,0,157.56,209a83.42,83.42,0,0,0,18.83-26.79,81.06,81.06,0,0,0,6.92-33.44A85.15,85.15,0,0,0,176.39,114,81.46,81.46,0,0,0,157.56,87.18Zm-22,79.38a41.28,41.28,0,0,1-9.42,13.76,42.3,42.3,0,0,1-13.92,8.83,45.74,45.74,0,0,1-17,3.14,43.58,43.58,0,0,1-30.81-12.57A42.71,42.71,0,0,1,55.2,166a43.49,43.49,0,0,1-3.38-17.21,45.62,45.62,0,0,1,3.38-17.88,41.76,41.76,0,0,1,9.26-13.76,40,40,0,0,1,13.84-8.83,48.47,48.47,0,0,1,34,0,41,41,0,0,1,13.92,8.83,42.32,42.32,0,0,1,9.42,13.76,47.75,47.75,0,0,1,0,35.69Z" transform="translate(-7.24 -6.31)"/><rect x="200.37" width="44.26" height="223.99"/><path d="M422.14,84.19a90.1,90.1,0,0,0-17.3-11,93.28,93.28,0,0,0-40.64-9.27A94.8,94.8,0,0,0,330,70.05a86.27,86.27,0,0,0-28,17.21A79.55,79.55,0,0,0,283.09,114a85.07,85.07,0,0,0-6.92,34.71A81.77,81.77,0,0,0,302,209.5,87,87,0,0,0,330,227a92.79,92.79,0,0,0,34.2,6.28,94.33,94.33,0,0,0,21-2.32,89.84,89.84,0,0,0,36.7-17.73A83.3,83.3,0,0,0,436,198.73l-32.19-30.08a39,39,0,0,1-6.68,9.8,40.65,40.65,0,0,1-9.33,7.48,46.19,46.19,0,0,1-23.58,6.36c-1.72,0-3.43-.07-5.15-.22a26.68,26.68,0,0,1-5.15-1l82.4-92.32A83.83,83.83,0,0,0,422.14,84.19ZM325.25,170a20.15,20.15,0,0,1-2.09-4.79,57.5,57.5,0,0,1-1.37-5.61,55.7,55.7,0,0,1-.8-5.76c-.16-1.89-.24-3.59-.24-5.09a45.85,45.85,0,0,1,3.38-18,40.13,40.13,0,0,1,23.09-22.44,46.94,46.94,0,0,1,17-3.07,61.91,61.91,0,0,1,6.2.3,26.88,26.88,0,0,1,6,1.35Z" transform="translate(-7.24 -6.31)"/><path d="M596.27,89.35a121.23,121.23,0,0,0-13.11-10,101.1,101.1,0,0,0-14.73-8.08,90,90,0,0,0-15.93-5.39,72,72,0,0,0-16.58-1.94,90.88,90.88,0,0,0-34.2,6.43,87.77,87.77,0,0,0-28,17.81,83.16,83.16,0,0,0-18.91,26.93,81.76,81.76,0,0,0-6.92,33.66q0,19.75,6.92,35.46a77.11,77.11,0,0,0,18.91,26.56,84.19,84.19,0,0,0,28,16.69,99.15,99.15,0,0,0,34.2,5.83q5.48,0,11.83-.6A74,74,0,0,0,560,230.52a54,54,0,0,0,10.7-4,18.93,18.93,0,0,0,7.41-6.36,59.87,59.87,0,0,1-4.75,11.67,34,34,0,0,1-8,9.8,36.8,36.8,0,0,1-12.23,6.74,54.89,54.89,0,0,1-17.54,2.47l-21.73-.3v40.84l22,.3a91.44,91.44,0,0,0,62.2-23.94A82.36,82.36,0,0,0,617,241.82,73.94,73.94,0,0,0,624,210.1V70.35H613.33Zm-20,75.64a46.48,46.48,0,0,1-23.34,23.64,40.18,40.18,0,0,1-17,3.66,46.94,46.94,0,0,1-17-3.06,40.19,40.19,0,0,1-23.09-22.45,45.78,45.78,0,0,1-3.38-18,48.2,48.2,0,0,1,3.38-18.63,38.13,38.13,0,0,1,23.09-22.07,50.26,50.26,0,0,1,17-2.84,40.19,40.19,0,0,1,17,3.67,46.38,46.38,0,0,1,23.34,23.64,39.82,39.82,0,0,1,0,32.47Z" transform="translate(-7.24 -6.31)"/><polygon points="759.95 64.04 694.44 141.25 694.44 0 650.19 0 650.19 223.99 694.44 223.99 694.44 203.49 725.02 165.78 759.95 223.99 810.48 223.99 753.35 130.77 810.48 64.04 759.95 64.04"/><path d="M884.35,75.21a78.16,78.16,0,0,0-24.14,13.84l-14.48-19H835.1V230.3H879V142a29.13,29.13,0,0,1,2.57-12.12A30.49,30.49,0,0,1,888.7,120a33.06,33.06,0,0,1,10.62-6.59,35.52,35.52,0,0,1,13-2.39h38.79V70.35H912.35A82.15,82.15,0,0,0,884.35,75.21Z" transform="translate(-7.24 -6.31)"/><path d="M1078.12,158.63a31.57,31.57,0,0,1-2.58,12.49,36.51,36.51,0,0,1-7.08,10.85,35.43,35.43,0,0,1-10.54,7.7,29,29,0,0,1-12.79,2.92,37,37,0,0,1-13-2.24,30.13,30.13,0,0,1-10.54-6.59,31.29,31.29,0,0,1-7.16-10.69,37.21,37.21,0,0,1-2.66-14.44V70.05H968v88.58a76.91,76.91,0,0,0,6,31,68.66,68.66,0,0,0,16.58,23.5,74.76,74.76,0,0,0,24.54,14.88,84.8,84.8,0,0,0,29.94,5.24,59.8,59.8,0,0,0,14.24-1.72,81.68,81.68,0,0,0,13.6-4.64,86.72,86.72,0,0,0,12.63-6.88,116.17,116.17,0,0,0,11.35-8.46l14.48,18.71h10.62V70.05h-43.93Z" transform="translate(-7.24 -6.31)"/><path d="M1203.25,118.3a41.65,41.65,0,0,1,13.84-9.65,42.42,42.42,0,0,1,17-3.44,44.23,44.23,0,0,1,12.55,1.8,42.32,42.32,0,0,1,11.35,5.23,43.45,43.45,0,0,1,9.41,8.46A39.7,39.7,0,0,1,1274,132l32.19-30.08a75.55,75.55,0,0,0-13.76-16.16A85.33,85.33,0,0,0,1275,73.87a89.7,89.7,0,0,0-19.8-7.41,88.4,88.4,0,0,0-21.16-2.54,85.61,85.61,0,0,0-34.2,6.88,89.64,89.64,0,0,0-28,18.78,88.32,88.32,0,0,0-18.91,27.9,85.89,85.89,0,0,0-6.92,34.41,74.1,74.1,0,0,0,6.92,31.73,82.52,82.52,0,0,0,18.91,25.88,89.63,89.63,0,0,0,28,17.43,91.75,91.75,0,0,0,34.2,6.36,94.46,94.46,0,0,0,21-2.32,89.88,89.88,0,0,0,36.69-17.73,82.94,82.94,0,0,0,14.08-14.51l-32.18-30.08a39.28,39.28,0,0,1-6.68,9.8,40.7,40.7,0,0,1-9.34,7.48,46.12,46.12,0,0,1-23.57,6.36,45.74,45.74,0,0,1-17-3.14,42.76,42.76,0,0,1-13.84-8.68,41.37,41.37,0,0,1-9.26-12.86,37.16,37.16,0,0,1-3.38-15.72A50.83,50.83,0,0,1,1194,133,45.91,45.91,0,0,1,1203.25,118.3Z" transform="translate(-7.24 -6.31)"/><path d="M1459.14,87.93a76.72,76.72,0,0,0-24.38-15.41,79.79,79.79,0,0,0-29.94-5.61,63.46,63.46,0,0,0-17.06,2.32,52.79,52.79,0,0,0-16.25,7.85V6.31h-43.94v224h43.94V138.73a28.3,28.3,0,0,1,2.57-11.9,31,31,0,0,1,7.08-9.8,33.36,33.36,0,0,1,10.63-6.58,35.52,35.52,0,0,1,13-2.4,33.93,33.93,0,0,1,23.18,9,31,31,0,0,1,7.08,9.8,28.3,28.3,0,0,1,2.57,11.9h-.32V230.3h44.26V138.73a65.78,65.78,0,0,0-6-27.91A73.46,73.46,0,0,0,1459.14,87.93Z" transform="translate(-7.24 -6.31)"/><path d="M1652,89.35a120.38,120.38,0,0,0-13.12-10,100.47,100.47,0,0,0-14.72-8.08,90,90,0,0,0-15.93-5.39,72.09,72.09,0,0,0-16.58-1.94,93.92,93.92,0,0,0-34.2,6.2,86.16,86.16,0,0,0-28,17.44,81.35,81.35,0,0,0-18.91,26.85,83.85,83.85,0,0,0-6.92,34.34q0,20.06,6.92,35.76a77.11,77.11,0,0,0,18.91,26.56,82.19,82.19,0,0,0,28,16.53,101.43,101.43,0,0,0,34.2,5.69,71,71,0,0,0,16.5-1.94A94.94,94.94,0,0,0,1624,226a98.74,98.74,0,0,0,14.72-7.93,137.47,137.47,0,0,0,13.28-9.8l17.06,22h10.62v-160h-10.62ZM1632,165a46.24,46.24,0,0,1-9.41,13.91,46.81,46.81,0,0,1-13.92,9.73,40.18,40.18,0,0,1-17,3.66,50,50,0,0,1-17-2.84,38.13,38.13,0,0,1-23.09-22.07,48.13,48.13,0,0,1-3.38-18.63,48.2,48.2,0,0,1,3.38-18.63,38.13,38.13,0,0,1,23.09-22.07,50.26,50.26,0,0,1,17-2.84,40.19,40.19,0,0,1,17,3.67A46.31,46.31,0,0,1,1632,132.52a39.82,39.82,0,0,1,0,32.47Z" transform="translate(-7.24 -6.31)"/><path d="M1821,70.05v88.58a31.74,31.74,0,0,1-2.57,12.49,36.7,36.7,0,0,1-7.08,10.85,35.68,35.68,0,0,1-10.54,7.7,29,29,0,0,1-12.8,2.92,39.12,39.12,0,0,1-13-2.09,29,29,0,0,1-10.54-6.36,30.54,30.54,0,0,1-7.17-10.62,38.48,38.48,0,0,1-2.65-14.89V70.05h-43.78v88.58a76.91,76.91,0,0,0,6,31,68.53,68.53,0,0,0,16.58,23.5,74.55,74.55,0,0,0,24.54,14.88,84.75,84.75,0,0,0,29.93,5.24,42.23,42.23,0,0,0,15-2.84q7.49-2.85,14.73-5.69a43.76,43.76,0,0,1-6.28,10.25,42.28,42.28,0,0,1-8.93,8.16,43.93,43.93,0,0,1-11,5.38,39.56,39.56,0,0,1-12.39,1.95l-24.46-.3v41.14l22.53.3a91,91,0,0,0,62-23.94,82.36,82.36,0,0,0,18.91-25.88,75.87,75.87,0,0,0,7.08-31.72v-140Z" transform="translate(-7.24 -6.31)"/><path d="M1916.77,87.74a19.92,19.92,0,0,1-1.6,8,20.49,20.49,0,0,1-4.37,6.5,21,21,0,0,1-6.51,4.4,20.41,20.41,0,0,1-15.89,0,20.75,20.75,0,0,1-10.9-10.9,20.41,20.41,0,0,1,0-15.89,20.84,20.84,0,0,1,4.4-6.51,20.49,20.49,0,0,1,6.5-4.37,20.53,20.53,0,0,1,15.89,0,20.31,20.31,0,0,1,10.88,10.88A19.84,19.84,0,0,1,1916.77,87.74Zm-5,.07a14.86,14.86,0,0,0-1.22-6,15.37,15.37,0,0,0-8.21-8.21,14.86,14.86,0,0,0-6-1.22,15,15,0,0,0-6,1.22,15.78,15.78,0,0,0-4.9,3.3,15.54,15.54,0,0,0-3.3,4.91,15.19,15.19,0,0,0,0,11.93,15.37,15.37,0,0,0,3.3,4.87,15.93,15.93,0,0,0,4.9,3.29,15,15,0,0,0,6,1.21,14.85,14.85,0,0,0,6-1.21,15.86,15.86,0,0,0,4.91-3.29,15.53,15.53,0,0,0,3.3-4.87A14.78,14.78,0,0,0,1911.75,87.81Zm-7.21,9.67a12.33,12.33,0,0,1-3.76,2.25,12.14,12.14,0,0,1-4.29.77,12,12,0,0,1-4.89-1,13,13,0,0,1-4-2.71,12.53,12.53,0,0,1-2.69-4,12.49,12.49,0,0,1,0-9.7,12.6,12.6,0,0,1,6.68-6.68,12.52,12.52,0,0,1,9.18-.21,13,13,0,0,1,3.76,2.18l-2.5,4.25a7.81,7.81,0,0,0-2.53-1.75,7.31,7.31,0,0,0-3-.64,7.58,7.58,0,0,0-3,.62,8,8,0,0,0-2.48,1.65,7.31,7.31,0,0,0-1.65,2.44,7.75,7.75,0,0,0,0,6,7.61,7.61,0,0,0,4.13,4.11,7.74,7.74,0,0,0,3,.6A7.68,7.68,0,0,0,1902,93.3Z" transform="translate(-7.24 -6.31)"/></svg>