<?xml version="1.0" standalone="no"?>
<!DOCTYPE svg PUBLIC "-//W3C//DTD SVG 20010904//EN"
 "http://www.w3.org/TR/2001/REC-SVG-20010904/DTD/svg10.dtd">
<svg version="1.0" xmlns="http://www.w3.org/2000/svg"
 width="441.000000pt" height="441.000000pt" viewBox="0 0 441.000000 441.000000"
 preserveAspectRatio="xMidYMid meet">
<metadata>
Created by potrace 1.11, written by Peter Selinger 2001-2013
</metadata>
<g transform="translate(0.000000,441.000000) scale(0.100000,-0.100000)"
fill="#000000" stroke="none">
<path d="M1510 4300 c-628 -7 -602 -4 -797 -95 -291 -137 -484 -367 -576 -686
l-25 -84 -7 -1664 -8 -1664 1664 7 1664 7 94 25 c186 48 375 158 502 291 130
136 207 272 262 464 l25 84 7 1663 7 1662 -1128 -2 c-621 -2 -1379 -5 -1684
-8z m2790 -1654 l0 -1644 -26 -88 c-60 -208 -135 -338 -278 -480 -141 -140
-282 -223 -473 -277 l-78 -22 -1662 -3 -1663 -3 0 1645 0 1644 26 88 c55 193
128 324 250 454 162 173 385 292 595 319 35 5 794 9 1687 10 l1622 1 0 -1644z"/>
<path d="M2200 3094 l0 -507 -32 27 c-165 135 -288 202 -442 241 -134 34 -377
36 -507 4 -102 -25 -263 -101 -346 -164 -184 -137 -320 -342 -385 -575 -29
-107 -36 -342 -14 -463 73 -390 343 -690 721 -804 83 -25 104 -27 265 -27 149
0 187 3 254 22 150 42 303 127 444 248 l42 37 0 -142 0 -141 255 0 255 0 0
129 0 128 165 219 c90 120 170 219 176 219 6 0 93 -145 192 -321 100 -177 189
-332 198 -345 15 -21 24 -23 115 -26 54 -2 181 0 281 4 l183 8 -111 195 c-132
231 -441 777 -493 871 l-36 66 118 149 c66 82 210 264 322 404 l203 255 -279
3 c-153 1 -284 0 -290 -2 -7 -3 -175 -212 -375 -466 l-364 -461 -3 860 -2 861
-255 0 -255 0 0 -506z m-526 -758 c221 -109 332 -373 266 -630 -27 -108 -72
-186 -145 -254 -98 -93 -198 -132 -332 -132 -281 0 -493 230 -493 535 0 239
125 429 331 506 45 16 74 19 175 16 118 -3 124 -4 198 -41z"/>
</g>
</svg>
