<?xml version="1.0" standalone="no"?>
<!DOCTYPE svg PUBLIC "-//W3C//DTD SVG 20010904//EN"
 "http://www.w3.org/TR/2001/REC-SVG-20010904/DTD/svg10.dtd">
<svg version="1.0" xmlns="http://www.w3.org/2000/svg"
 width="420.000000pt" height="420.000000pt" viewBox="0 0 420.000000 420.000000"
 preserveAspectRatio="xMidYMid meet">
<metadata>
Created by potrace 1.11, written by Peter Selinger 2001-2013
</metadata>
<g transform="translate(0.000000,420.000000) scale(0.100000,-0.100000)"
fill="#000000" stroke="none">
<path d="M1810 4173 c-152 -28 -199 -43 -315 -101 -136 -68 -179 -99 -324
-243 -96 -95 -150 -158 -195 -228 -91 -139 -91 -141 -90 -326 0 -131 4 -173
21 -235 20 -71 34 -148 49 -270 3 -30 8 -62 9 -71 8 -44 16 -239 11 -256 -4
-12 -18 -23 -35 -26 -38 -8 -39 -21 -35 -292 4 -290 21 -469 49 -511 16 -24
72 -38 115 -29 22 5 30 2 34 -12 6 -18 21 -119 31 -208 11 -97 46 -247 71
-311 16 -39 47 -87 80 -124 30 -34 54 -64 54 -67 0 -9 38 -315 50 -402 12 -89
36 -145 81 -189 71 -72 220 -153 318 -173 31 -6 108 -25 171 -41 104 -27 126
-30 230 -26 130 6 203 26 400 109 214 91 297 137 367 203 35 33 71 73 79 88
16 32 18 97 4 188 -17 107 -23 310 -12 365 6 28 22 82 36 120 13 39 35 132 47
209 13 76 28 145 34 152 6 9 34 16 70 18 92 5 141 35 171 102 41 93 76 307 82
492 5 180 -1 244 -25 268 -21 20 -59 11 -95 -23 -15 -15 -31 -23 -35 -20 -4 4
1 47 10 95 10 48 19 141 22 207 8 172 17 254 31 276 18 29 63 326 64 415 0 65
-17 173 -30 189 -4 6 -15 49 -24 97 -25 132 -40 167 -104 231 -60 61 -75 67
-103 41 -17 -16 -21 -15 -57 17 -21 19 -49 42 -62 51 -14 10 -56 41 -95 69
-38 28 -81 55 -95 61 -14 5 -54 24 -90 42 -78 40 -136 53 -295 66 -66 5 -156
15 -200 21 -152 21 -337 18 -475 -8z"/>
</g>
</svg>
